The.Speed.of.Thought.2011.DvDRip.XviD.Ac3.Feel-Free


Genre:Thriller
Language:English
IMDb:http://www.imdb.com/title/tt0847825/
Source:DVD


Format : AVI
Format/Info : Audio Video Interleave
File size : 1.08 GiB
Duration : 1h 34mn
Overall bit rate : 1 643 Kbps


Video
ID : 0
Format : MPEG-4 Visual
Format profile : Advanced Simple@L5
Format settings, BVOP : Yes
Format settings, QPel : No
Format settings, GMC : No warppoints
Format settings, Matrix : Default (H.263)
Muxing mode : Packed bitstream
Codec ID : XVID
Codec ID/Hint : XviD
Duration : 1h 34mn
Bit rate : 1 187 Kbps
Width : 720 pixels
Height : 384 pixels
Display aspect ratio : 1.875
Frame rate : 23.976 fps
Color space : YUV
Chroma subsampling : 4:2:0
Bit depth : 8 bits
Scan type : Progressive
Bits/(Pixel*Frame) : 0.179
Stream size : 798 MiB (72%)
Writing library : XviD 1.2.1 (UTC 2008-12-04)

Audio
ID : 1
Format : AC-3
Format/Info : Audio Coding 3
Mode extension : CM (complete main)
Codec ID : 2000
Duration : 1h 33mn
Bit rate mode : Constant
Bit rate : 448 Kbps
Channel(s) : 6 channels
Channel positions : Front: L C R, Side: L R, LFE
Sampling rate : 48.0 KHz
Bit depth : 16 bits
Stream size : 300 MiB (27%)
Alignment : Split accross interleaves
Interleave, duration : 42 ms (1.00 video frame)
Interleave, preload duration : 500 ms


Plot:

Joshua Lazarus (Nick Stahl) is a telepath who has been raised in a NSA foster home. Lazarus helps the government by using his abilities...


Screens:

 
http://www.postimg.com/image/32000/photo-31502.jpg
 
http://www.postimg.com/image/32000/photo-31503.jpg
 
http://www.postimg.com/image/32000/photo-31504.jpg


ENJOY!